<svg version="1.1" xmlns="http://www.w3.org/2000/svg" xmlns:xlink="http://www.w3.org/1999/xlink" width="358" height="358" viewBox="0,0,358,358"><g transform="translate(-61,-1)"><g data-paper-data="{&quot;isPaintingLayer&quot;:true}" fill-rule="nonzero" stroke="#000000" stroke-linejoin="miter" stroke-miterlimit="10" stroke-dasharray="" stroke-dashoffset="0" style="mix-blend-mode: normal"><path d="M66,180c0,-96.09755 77.90245,-174 174,-174c96.09755,0 174,77.90245 174,174c0,96.09755 -77.90245,174 -174,174c-96.09755,0 -174,-77.90245 -174,-174z" fill="#fffe00" stroke-width="10" stroke-linecap="butt"/><path d="M374.57709,202.57497c-26.56664,42.17611 -53.55379,91.73197 -99.74001,103.25641c-44.12163,11.00928 -107.20787,-14.26361 -143.79856,-47.9559" data-paper-data="{&quot;index&quot;:null}" fill="none" stroke-width="10" stroke-linecap="round"/><path d="M129.63964,133.45345c0,-12.43884 10.08367,-22.52252 22.52253,-22.52252c12.43884,0 22.52253,10.08367 22.52253,22.52253c0,12.43884 -10.08367,22.52253 -22.52253,22.52253c-12.43884,0 -22.52252,-10.08367 -22.52252,-22.52253z" fill="#000000" stroke-width="8" stroke-linecap="butt"/><path d="M282.79279,96.66667c0,-12.85347 10.4198,-23.27327 23.27327,-23.27327c12.85347,0 23.27327,10.4198 23.27327,23.27327c0,12.85347 -10.4198,23.27327 -23.27327,23.27327c-12.85347,0 -23.27327,-10.4198 -23.27327,-23.27327z" fill="#000000" stroke-width="8" stroke-linecap="butt"/></g></g></svg>